<?xml version="1.0" encoding="UTF-8"?>
<svg version="1.1" xmlns="http://www.w3.org/2000/svg" width="192" height="96">
<path d="M0 0 C63.36 0 126.72 0 192 0 C192 31.68 192 63.36 192 96 C128.64 96 65.28 96 0 96 C0 64.32 0 32.64 0 0 Z " fill="#EF595A" transform="translate(0,0)"/>
<path d="M0 0 C31.68 0 63.36 0 96 0 C96 31.68 96 63.36 96 96 C64.32 96 32.64 96 0 96 C0 64.32 0 32.64 0 0 Z " fill="#FEFEFE" transform="translate(0,0)"/>
<path d="M0 0 C3.444375 1.464375 6.88875 2.92875 10.4375 4.4375 C12.06836548 5.12863892 12.06836548 5.12863892 13.73217773 5.83374023 C14.58239502 6.19669189 15.4326123 6.55964355 16.30859375 6.93359375 C17.18314209 7.30540771 18.05769043 7.67722168 18.95874023 8.06030273 C21 9 21 9 22 10 C22.08783542 12.21855264 22.10694609 14.43988496 22.09765625 16.66015625 C22.0962413 17.32462265 22.09482635 17.98908905 22.09336853 18.6736908 C22.08775518 20.80333899 22.07520054 22.93288339 22.0625 25.0625 C22.05748671 26.50325369 22.05292351 27.94400903 22.04882812 29.38476562 C22.03863076 32.92324958 22.0190583 36.46150813 22 40 C14.74 40 7.48 40 0 40 C0 26.8 0 13.6 0 0 Z " fill="#EF585A" transform="translate(49,18)"/>
<path d="M0 0 C0 10.23 0 20.46 0 31 C-7.26 31 -14.52 31 -22 31 C-22 24.07 -22 17.14 -22 10 C-19.463125 8.72125 -16.92625 7.4425 -14.3125 6.125 C-13.52270752 5.72555176 -12.73291504 5.32610352 -11.91918945 4.91455078 C-2.12846348 0 -2.12846348 0 0 0 Z " fill="#37363D" transform="translate(47,27)"/>
<path d="M0 0 C1.65 0 3.3 0 5 0 C6.125 3.75 6.125 3.75 5 6 C6.65 6.66 8.3 7.32 10 8 C10 9.65 10 11.3 10 13 C12.64 13.33 15.28 13.66 18 14 C17.34 14.33 16.68 14.66 16 15 C16 15.66 16 16.32 16 17 C16.99 17 17.98 17 19 17 C19 18.32 19 19.64 19 21 C17.081875 21.4640625 17.081875 21.4640625 15.125 21.9375 C12.89898325 22.47605244 11.05260001 22.9737 9 24 C9 25.65 9 27.3 9 29 C8.01 29 7.02 29 6 29 C6 29.66 6 30.32 6 31 C6.99 31.33 7.98 31.66 9 32 C8.01 32 7.02 32 6 32 C6 32.66 6 33.32 6 34 C7.485 34.495 7.485 34.495 9 35 C7.35 35 5.7 35 4 35 C3.67 34.34 3.34 33.68 3 33 C2.34 33.66 1.68 34.32 1 35 C-1.63233792 35.8563027 -4.29546818 36.38929927 -7 37 C-7.19389096 34.5211787 -7.38040123 32.04219069 -7.5625 29.5625 C-7.61857422 28.85544922 -7.67464844 28.14839844 -7.73242188 27.41992188 C-7.86190993 25.61572163 -7.93521608 23.80768048 -8 22 C-7.67 21.67 -7.34 21.34 -7 21 C-9.64 21 -12.28 21 -15 21 C-15 18.69 -15 16.38 -15 14 C-13.35 14 -11.7 14 -10 14 C-10.99 14.33 -11.98 14.66 -13 15 C-13 15.66 -13 16.32 -13 17 C-12.01 17.33 -11.02 17.66 -10 18 C-10.99 18 -11.98 18 -13 18 C-13 18.66 -13 19.32 -13 20 C-11.04105639 19.88693303 -11.04105639 19.88693303 -9 19 C-7.70339566 16.50965614 -7.70339566 16.50965614 -7 14 C-4 14 -4 14 -2.3125 15.5 C-1.879375 15.995 -1.44625 16.49 -1 17 C-1 16.01 -1 15.02 -1 14 C-0.34 14 0.32 14 1 14 C1 15.98 1 17.96 1 20 C1.99 20.33 2.98 20.66 4 21 C2.68 21.33 1.36 21.66 0 22 C0 22.99 0 23.98 0 25 C1.98 25.66 3.96 26.32 6 27 C7.0514562 22.44368982 6.85951926 18.70370428 6.15625 14.1484375 C5.99006461 11.86338841 6.32992543 10.17774236 7 8 C6.01 8 5.02 8 4 8 C3.67 8.66 3.34 9.32 3 10 C2.01 9.34 1.02 8.68 0 8 C-0.40843923 5.28796348 -0.13336867 2.7562858 0 0 Z " fill="#F06F70" transform="translate(133,30)"/>
<path d="M0 0 C0.33 0.66 0.66 1.32 1 2 C1.928125 1.95875 2.85625 1.9175 3.8125 1.875 C7 2 7 2 10 4 C10.1875 7.625 10.1875 7.625 10 11 C7.33333333 11 4.66666667 11 2 11 C0.7625 11.12375 0.7625 11.12375 -0.5 11.25 C-3 11 -3 11 -4.8125 9 C-5.4003125 8.01 -5.4003125 8.01 -6 7 C-6.33 8.32 -6.66 9.64 -7 11 C-7.66 11 -8.32 11 -9 11 C-9.66 8.69 -10.32 6.38 -11 4 C-10.34 4 -9.68 4 -9 4 C-9 4.66 -9 5.32 -9 6 C-8.34 6 -7.68 6 -7 6 C-7 5.34 -7 4.68 -7 4 C-6.34 4 -5.68 4 -5 4 C-4.67 3.01 -4.34 2.02 -4 1 C-4 1.66 -4 2.32 -4 3 C-3.01 2.67 -2.02 2.34 -1 2 C-0.67 1.34 -0.34 0.68 0 0 Z " fill="#F28788" transform="translate(121,26)"/>
<path d="M0 0 C1.65 0 3.3 0 5 0 C5.93619813 3.15506142 6.1057123 5.96586502 6.0625 9.25 C6.05347656 10.14203125 6.04445313 11.0340625 6.03515625 11.953125 C6.02355469 12.62859375 6.01195313 13.3040625 6 14 C6.99 14 7.98 14 9 14 C9.33 15.65 9.66 17.3 10 19 C10.33 19 10.66 19 11 19 C11.33 17.35 11.66 15.7 12 14 C12.66 14 13.32 14 14 14 C14.125 16.375 14.125 16.375 14 19 C12 21 12 21 9.46875 21.265625 C8.4890625 21.26046875 7.509375 21.2553125 6.5 21.25 C5.5203125 21.25515625 4.540625 21.2603125 3.53125 21.265625 C1 21 1 21 -1 19 C-0.63318342 16.06546739 -0.13562754 15.13562754 2 13 C2.99 13 3.98 13 5 13 C4.67 12.21625 4.34 11.4325 4 10.625 C3 8 3 8 3 6 C2.34 5.67 1.68 5.34 1 5 C0.67 5.66 0.34 6.32 0 7 C0 4.69 0 2.38 0 0 Z " fill="#F49799" transform="translate(111,44)"/>
<path d="M0 0 C1.65 0 3.3 0 5 0 C6.125 3.75 6.125 3.75 5 6 C7.475 6.99 7.475 6.99 10 8 C10 9.65 10 11.3 10 13 C10.66 13.33 11.32 13.66 12 14 C10.68 14 9.36 14 8 14 C8 16.31 8 18.62 8 21 C7.67 21 7.34 21 7 21 C6.80341192 19.58456585 6.61812454 18.16755969 6.4375 16.75 C6.33308594 15.96109375 6.22867188 15.1721875 6.12109375 14.359375 C5.99972651 11.99467126 6.30366743 10.2488963 7 8 C6.01 8 5.02 8 4 8 C3.67 8.66 3.34 9.32 3 10 C2.01 9.34 1.02 8.68 0 8 C-0.40843923 5.28796348 -0.13336867 2.7562858 0 0 Z " fill="#F06E71" transform="translate(133,30)"/>
<path d="M0 0 C3.3 0 6.6 0 10 0 C9.01 0.495 9.01 0.495 8 1 C8 1.66 8 2.32 8 3 C8.99 3 9.98 3 11 3 C11 4.32 11 5.64 11 7 C7.37 7 3.74 7 0 7 C0 4.69 0 2.38 0 0 Z " fill="#F6BCBB" transform="translate(141,44)"/>
<path d="M0 0 C1.65 0 3.3 0 5 0 C5 0.66 5 1.32 5 2 C6.32 1.34 7.64 0.68 9 0 C8.67 1.65 8.34 3.3 8 5 C7.01 5 6.02 5 5 5 C5 7.31 5 9.62 5 12 C4.34 11.67 3.68 11.34 3 11 C2.375 7.9375 2.375 7.9375 2 5 C-0.64 4.34 -3.28 3.68 -6 3 C-5.34 2.34 -4.68 1.68 -4 1 C-1.875 1.375 -1.875 1.375 0 2 C0 1.34 0 0.68 0 0 Z " fill="#F16567" transform="translate(128,25)"/>
<path d="M0 0 C3.3 0 6.6 0 10 0 C10.99 2.31 11.98 4.62 13 7 C10.36 7 7.72 7 5 7 C5 5.68 5 4.36 5 3 C4.67 4.32 4.34 5.64 4 7 C3.34 7 2.68 7 2 7 C2 5.02 2 3.04 2 1 C1.34 0.67 0.68 0.34 0 0 Z " fill="#F9D7D6" transform="translate(153,44)"/>
<path d="M0 0 C1.65 0 3.3 0 5 0 C4.01 0.33 3.02 0.66 2 1 C2 1.66 2 2.32 2 3 C2.99 3.33 3.98 3.66 5 4 C4.01 4 3.02 4 2 4 C2 4.66 2 5.32 2 6 C3.95894361 5.88693303 3.95894361 5.88693303 6 5 C7.29660434 2.50965614 7.29660434 2.50965614 8 0 C8.99 0 9.98 0 11 0 C11.66 2.31 12.32 4.62 13 7 C8.71 7 4.42 7 0 7 C0 4.69 0 2.38 0 0 Z " fill="#F9D3D3" transform="translate(118,44)"/>
<path d="M0 0 C0.99 0 1.98 0 3 0 C4.32 3.3 5.64 6.6 7 10 C6.01 10 5.02 10 4 10 C4 9.34 4 8.68 4 8 C2.35 8 0.7 8 -1 8 C-1 8.66 -1 9.32 -1 10 C-1.99 9.67 -2.98 9.34 -4 9 C-2.68 6.03 -1.36 3.06 0 0 Z " fill="#4C4B4F" transform="translate(54,68)"/>
<path d="M0 0 C2.31 0 4.62 0 7 0 C7 0.66 7 1.32 7 2 C5.68 2 4.36 2 3 2 C3 2.66 3 3.32 3 4 C4.32 4 5.64 4 7 4 C7 4.66 7 5.32 7 6 C5.35 6 3.7 6 2 6 C2 6.66 2 7.32 2 8 C3.65 8 5.3 8 7 8 C7 8.66 7 9.32 7 10 C4.69 10 2.38 10 0 10 C0 6.7 0 3.4 0 0 Z " fill="#535357" transform="translate(17,68)"/>
<path d="M0 0 C2.31 0 4.62 0 7 0 C7 0.66 7 1.32 7 2 C5.35 2 3.7 2 2 2 C2 2.66 2 3.32 2 4 C3.65 4 5.3 4 7 4 C7 4.66 7 5.32 7 6 C5.35 6 3.7 6 2 6 C2 6.66 2 7.32 2 8 C3.65 8 5.3 8 7 8 C7 8.66 7 9.32 7 10 C4.69 10 2.38 10 0 10 C0 6.7 0 3.4 0 0 Z " fill="#515054" transform="translate(75,68)"/>
<path d="M0 0 C0.33 0 0.66 0 1 0 C1.33 1.65 1.66 3.3 2 5 C2.99 5.33 3.98 5.66 5 6 C5.33 8.31 5.66 10.62 6 13 C4.68 13.33 3.36 13.66 2 14 C1.34 12.68 0.68 11.36 0 10 C0.33 9.67 0.66 9.34 1 9 C-0.32 9 -1.64 9 -3 9 C-2.67 7.68 -2.34 6.36 -2 5 C-1.67 5 -1.34 5 -1 5 C-0.67 3.35 -0.34 1.7 0 0 Z " fill="#EE5F5F" transform="translate(110,44)"/>
<path d="M0 0 C2.5 0.125 2.5 0.125 3.5 1.125 C3.625 3.625 3.625 3.625 3.5 6.125 C2.5 7.125 2.5 7.125 0.0625 7.3125 C-2.5 7.125 -2.5 7.125 -4.5 5.125 C-3.7519084 0.18759542 -3.7519084 0.18759542 0 0 Z " fill="#F6B4B2" transform="translate(120.5,29.875)"/>
<path d="M0 0 C3.96 0 7.92 0 12 0 C10.68 0.33 9.36 0.66 8 1 C8 1.66 8 2.32 8 3 C9.32 3.33 10.64 3.66 12 4 C10.68 4 9.36 4 8 4 C8 4.66 8 5.32 8 6 C9.32 6.33 10.64 6.66 12 7 C10.02 7 8.04 7 6 7 C6 5.35 6 3.7 6 2 C5.34 2 4.68 2 4 2 C4 3.65 4 5.3 4 7 C3.34 7 2.68 7 2 7 C2 5.02 2 3.04 2 1 C1.34 0.67 0.68 0.34 0 0 Z " fill="#F9D3D2" transform="translate(165,44)"/>
<path d="M0 0 C1.65 0 3.3 0 5 0 C5.33 0.66 5.66 1.32 6 2 C4.35 2 2.7 2 1 2 C1 2.66 1 3.32 1 4 C2.65 4.33 4.3 4.66 6 5 C5.67 6.65 5.34 8.3 5 10 C3.35 10 1.7 10 0 10 C-0.33 9.01 -0.66 8.02 -1 7 C1.475 7.495 1.475 7.495 4 8 C4 7.34 4 6.68 4 6 C2.35 5.67 0.7 5.34 -1 5 C-0.67 3.35 -0.34 1.7 0 0 Z " fill="#4B4B4E" transform="translate(30,68)"/>
<path d="M0 0 C2.375 -0.125 2.375 -0.125 5 0 C5.66 0.66 6.32 1.32 7 2 C6.46428571 5.53571429 6.46428571 5.53571429 5 7 C3.33382885 7.04063832 1.66611905 7.042721 0 7 C0 4.69 0 2.38 0 0 Z " fill="#F7BEBE" transform="translate(129,58)"/>
<path d="M0 0 C0.33 1.32 0.66 2.64 1 4 C2.65 4 4.3 4 6 4 C5.34 5.65 4.68 7.3 4 9 C3.34 9 2.68 9 2 9 C2 8.34 2 7.68 2 7 C0.68 7 -0.64 7 -2 7 C-2 6.34 -2 5.68 -2 5 C-3.65 5 -5.3 5 -7 5 C-7 4.67 -7 4.34 -7 4 C-6.030625 3.71125 -5.06125 3.4225 -4.0625 3.125 C-0.89335797 2.35785318 -0.89335797 2.35785318 0 0 Z " fill="#EE6163" transform="translate(136,61)"/>
<path d="M0 0 C0.66 0 1.32 0 2 0 C2 1.98 2 3.96 2 6 C2.99 6.33 3.98 6.66 5 7 C4.360625 7.12375 3.72125 7.2475 3.0625 7.375 C2.0415625 7.684375 2.0415625 7.684375 1 8 C0.67 8.66 0.34 9.32 0 10 C-1.32 9.34 -2.64 8.68 -4 8 C-3.67 7.34 -3.34 6.68 -3 6 C-2.34 6.33 -1.68 6.66 -1 7 C-1.33 5.68 -1.66 4.36 -2 3 C-1.34 3 -0.68 3 0 3 C0 2.01 0 1.02 0 0 Z " fill="#F49C9D" transform="translate(132,44)"/>
<path d="M0 0 C1.65 0 3.3 0 5 0 C5.68707555 2.49064888 6 4.37886292 6 7 C3.525 6.01 3.525 6.01 1 5 C0.67 5.66 0.34 6.32 0 7 C0 4.69 0 2.38 0 0 Z " fill="#F9D5D3" transform="translate(111,44)"/>
<path d="M0 0 C1.65 0 3.3 0 5 0 C5.68707555 2.49064888 6 4.37886292 6 7 C3.525 6.01 3.525 6.01 1 5 C0.67 5.66 0.34 6.32 0 7 C0 4.69 0 2.38 0 0 Z " fill="#F9D6D3" transform="translate(133,30)"/>
<path d="M0 0 C2.64 0 5.28 0 8 0 C8 0.66 8 1.32 8 2 C7.01 2 6.02 2 5 2 C5 4.64 5 7.28 5 10 C4.34 10 3.68 10 3 10 C3 7.36 3 4.72 3 2 C2.01 2 1.02 2 0 2 C0 1.34 0 0.68 0 0 Z " fill="#4B4A4F" transform="translate(63,68)"/>
<path d="M0 0 C2.64 0 5.28 0 8 0 C8 0.66 8 1.32 8 2 C7.01 2 6.02 2 5 2 C5 4.64 5 7.28 5 10 C4.34 10 3.68 10 3 10 C3 7.36 3 4.72 3 2 C2.01 2 1.02 2 0 2 C0 1.34 0 0.68 0 0 Z " fill="#59585C" transform="translate(40,68)"/>
<path d="M0 0 C0.66 0 1.32 0 2 0 C2.33 1.65 2.66 3.3 3 5 C3.33 5 3.66 5 4 5 C4.33 3.35 4.66 1.7 5 0 C5.66 0 6.32 0 7 0 C7.125 2.375 7.125 2.375 7 5 C6.34 5.66 5.68 6.32 5 7 C2.375 6.625 2.375 6.625 0 6 C0 4.02 0 2.04 0 0 Z " fill="#F9D2D0" transform="translate(118,58)"/>
<path d="M0 0 C0 1.98 0 3.96 0 6 C-0.99 6 -1.98 6 -3 6 C-3 4.68 -3 3.36 -3 2 C-3.99 2 -4.98 2 -6 2 C-6 1.34 -6 0.68 -6 0 C-3.50907189 -1.24546405 -2.58919267 -0.7767578 0 0 Z " fill="#EF7376" transform="translate(155,45)"/>
<path d="M0 0 C0.66 0 1.32 0 2 0 C2 1.65 2 3.3 2 5 C2.99 5 3.98 5 5 5 C5 3.35 5 1.7 5 0 C5.33 0 5.66 0 6 0 C6 2.31 6 4.62 6 7 C4.33388095 7.042721 2.66617115 7.04063832 1 7 C0 6 0 6 -0.0625 2.9375 C-0.041875 1.968125 -0.02125 0.99875 0 0 Z " fill="#F9D4D1" transform="translate(125,30)"/>
<path d="M0 0 C2.64 0 5.28 0 8 0 C7.67 0.99 7.34 1.98 7 3 C6.34 3 5.68 3 5 3 C4.67 4.32 4.34 5.64 4 7 C3.34 7 2.68 7 2 7 C2 5.02 2 3.04 2 1 C1.34 0.67 0.68 0.34 0 0 Z " fill="#F6B0AF" transform="translate(153,44)"/>
<path d="M0 0 C-0.66 1.65 -1.32 3.3 -2 5 C-3.32 5 -4.64 5 -6 5 C-6 3.35 -6 1.7 -6 0 C-3 -1 -3 -1 0 0 Z " fill="#F06C6F" transform="translate(126,45)"/>
<path d="M0 0 C1.65 0 3.3 0 5 0 C4.01 0.33 3.02 0.66 2 1 C2 1.66 2 2.32 2 3 C2.99 3.33 3.98 3.66 5 4 C4.01 4 3.02 4 2 4 C2 4.66 2 5.32 2 6 C2.99 6.33 3.98 6.66 5 7 C3.35 7 1.7 7 0 7 C0 4.69 0 2.38 0 0 Z " fill="#FCEDEC" transform="translate(137,58)"/>
<path d="M0 0 C1.65 0 3.3 0 5 0 C4.01 0.33 3.02 0.66 2 1 C2 1.66 2 2.32 2 3 C2.99 3.33 3.98 3.66 5 4 C4.01 4 3.02 4 2 4 C2 4.66 2 5.32 2 6 C2.99 6.33 3.98 6.66 5 7 C3.35 7 1.7 7 0 7 C0 4.69 0 2.38 0 0 Z " fill="#FBEEEC" transform="translate(118,44)"/>
<path d="M0 0 C0.99 0.33 1.98 0.66 3 1 C2.67 2.65 2.34 4.3 2 6 C0.35 6 -1.3 6 -3 6 C-3.33 5.01 -3.66 4.02 -4 3 C-1.525 3.495 -1.525 3.495 1 4 C0.67 2.68 0.34 1.36 0 0 Z " fill="#535356" transform="translate(33,72)"/>
<path d="M0 0 C0.99 0 1.98 0 3 0 C4.125 3.75 4.125 3.75 3 6 C2.01 6 1.02 6 0 6 C-1.125 2.25 -1.125 2.25 0 0 Z " fill="#6F6E73" transform="translate(54,68)"/>
<path d="M0 0 C3.55780196 0.60990891 6.6828589 1.5783681 10 3 C6.18510326 4.46726798 3.70988378 3.43336419 0 2 C0 1.34 0 0.68 0 0 Z " fill="#F06164" transform="translate(60,24)"/>
<path d="M0 0 C0.33 0 0.66 0 1 0 C1.33 2.64 1.66 5.28 2 8 C0.35 8.33 -1.3 8.66 -3 9 C-2.67 7.68 -2.34 6.36 -2 5 C-1.67 5 -1.34 5 -1 5 C-0.67 3.35 -0.34 1.7 0 0 Z " fill="#EE686B" transform="translate(110,44)"/>
</svg>
